<?xml version="1.0" standalone="no"?>
<!DOCTYPE svg PUBLIC "-//W3C//DTD SVG 20010904//EN"
 "http://www.w3.org/TR/2001/REC-SVG-20010904/DTD/svg10.dtd">
<svg version="1.0" xmlns="http://www.w3.org/2000/svg"
 width="512.000000pt" height="512.000000pt" viewBox="0 0 512.000000 512.000000"
 preserveAspectRatio="xMidYMid meet">

<g transform="translate(0.000000,512.000000) scale(0.100000,-0.100000)"
fill="#000000" stroke="none">
<path d="M2550 4175 l0 -125 25 0 25 0 0 125 0 125 -25 0 -25 0 0 -125z"/>
<path d="M2250 4263 c0 -10 5 -64 12 -120 l12 -103 28 0 c23 0 28 4 24 18 -2
9 -10 63 -16 120 -12 98 -13 102 -36 102 -16 0 -24 -6 -24 -17z"/>
<path d="M2820 4178 c-6 -57 -14 -111 -16 -120 -4 -14 1 -18 24 -18 l28 0 12
103 c16 138 16 137 -12 137 -23 0 -24 -4 -36 -102z"/>
<path d="M1972 4232 c-16 -2 -21 -9 -18 -20 3 -9 12 -46 21 -82 34 -139 35
-140 55 -140 10 0 21 4 25 9 6 10 -43 222 -54 232 -3 3 -16 3 -29 1z"/>
<path d="M3125 4226 c-18 -51 -54 -219 -50 -226 4 -6 15 -10 25 -10 20 0 21 1
55 140 9 36 18 72 21 81 5 19 -45 34 -51 15z"/>
<path d="M2551 3830 c-12 -63 -25 -173 -28 -245 -5 -121 -4 -132 15 -155 17
-20 24 -23 39 -14 44 27 53 134 27 336 -27 210 -27 210 -53 78z"/>
</g>
</svg>
